<?xml version="1.0" encoding="utf-8"?>
<!-- Generator: Adobe Illustrator 16.0.0, SVG Export Plug-In . SVG Version: 6.00 Build 0)  -->
<!DOCTYPE svg PUBLIC "-//W3C//DTD SVG 1.1//EN" "http://www.w3.org/Graphics/SVG/1.1/DTD/svg11.dtd">
<svg version="1.1" xmlns="http://www.w3.org/2000/svg" xmlns:xlink="http://www.w3.org/1999/xlink" x="0px" y="0px" width="1024px"
	 height="1024px" viewBox="0 0 1024 1024" enable-background="new 0 0 1024 1024" xml:space="preserve">
<g id="Ebene_1">
	<g id="Ebene_1_1_">
		
			<linearGradient id="SVGID_1_" gradientUnits="userSpaceOnUse" x1="297.5" y1="98.981" x2="297.5" y2="1109.02" gradientTransform="matrix(1 0 0 -1 214.5 1116)">
			<stop  offset="0" style="stop-color:#00FFCF"/>
			<stop  offset="0.0976" style="stop-color:#03F6D0"/>
			<stop  offset="0.2598" style="stop-color:#0BDCD2"/>
			<stop  offset="0.4655" style="stop-color:#17B3D5"/>
			<stop  offset="0.5674" style="stop-color:#1E9CD7"/>
			<stop  offset="0.8652" style="stop-color:#0075BE"/>
			<stop  offset="0.9944" style="stop-color:#005B97"/>
		</linearGradient>
		<circle fill="url(#SVGID_1_)" cx="512" cy="512" r="505.02"/>
	</g>
	<g id="Ebene_2">
		
			<image overflow="visible" opacity="0.75" width="571" height="572" xlink:href="66093992F55C185.png"  transform="matrix(1 0 0 1 227.5 225.5)">
		</image>
		<g>
			<g>
				<path fill="#FFFFFF" d="M521.902,335.738c0,6.562-3.42,11.883-7.64,11.883h-2.545c-4.22,0-7.639-5.32-7.639-11.883v-92.092
					c0-6.562,3.419-11.883,7.639-11.883h2.545c4.22,0,7.64,5.321,7.64,11.883V335.738z"/>
				<path fill="#FFFFFF" d="M520.912,779.363c0,6.562-3.42,11.883-7.64,11.883h-2.545c-4.22,0-7.639-5.32-7.639-11.883v-92.092
					c0-6.562,3.419-11.883,7.639-11.883h2.545c4.22,0,7.64,5.32,7.64,11.883V779.363z"/>
				<path fill="#FFFFFF" d="M338.214,503.088c6.562,0,11.388,2.925,11.388,7.144v2.545c0,4.221-4.825,8.135-11.388,8.135h-92.092
					c-6.562,0-12.378-3.914-12.378-8.135v-2.545c0-4.219,5.816-7.144,12.378-7.144H338.214L338.214,503.088z"/>
				<path fill="#FFFFFF" d="M780.849,503.088c6.562,0,11.388,2.925,11.388,7.144v2.545c0,4.221-4.825,8.135-11.388,8.135h-92.092
					c-6.562,0-12.378-3.914-12.378-8.135v-2.545c0-4.219,5.815-7.144,12.378-7.144H780.849L780.849,503.088z"/>
				<path fill="#FFFFFF" d="M381.656,631.227c4.64-4.641,10.121-5.983,13.104-3l1.799,1.799c2.984,2.984,2.34,9.163-2.301,13.804
					l-65.119,65.118c-4.64,4.643-11.52,5.984-14.503,3l-1.799-1.799c-2.983-2.983-0.94-9.164,3.701-13.804L381.656,631.227z"/>
				<path fill="#FFFFFF" d="M696.551,314.351c4.64-4.641,10.12-5.984,13.103-3l1.8,1.799c2.983,2.984,2.34,9.163-2.301,13.803
					l-65.118,65.119c-4.641,4.641-11.521,5.985-14.504,3l-1.799-1.799c-2.983-2.984-0.941-9.165,3.7-13.804L696.551,314.351z"/>
				<path fill="#FFFFFF" d="M631.93,643.338c-4.642-4.64-5.983-10.121-3-13.103l1.799-1.8c2.984-2.983,9.163-2.34,13.804,2.301
					l65.118,65.118c4.642,4.641,5.984,11.521,3,14.504l-1.799,1.799c-2.983,2.983-9.164,0.94-13.804-3.7L631.93,643.338z"/>
				<path fill="#FFFFFF" d="M315.055,327.454c-4.641-4.64-5.984-10.121-3.001-13.104l1.8-1.799c2.984-2.985,9.164-2.34,13.803,2.301
					l65.119,65.119c4.642,4.64,5.985,11.52,3,14.503l-1.799,1.799c-2.983,2.984-9.165,0.94-13.803-3.7L315.055,327.454z"/>
				<path fill="#FFFFFF" d="M512.495,363.465c-82.034,0-148.535,66.501-148.535,148.535c0,82.034,66.501,148.535,148.535,148.535
					c82.034,0,148.535-66.501,148.535-148.535C661.03,429.966,594.529,363.465,512.495,363.465z M512.495,641.969
					c-71.773,0-129.968-58.189-129.968-129.969s58.196-129.968,129.968-129.968c71.773,0,129.968,58.189,129.968,129.968
					S584.269,641.969,512.495,641.969z"/>
			</g>
		</g>
	</g>
</g>
<g id="Ebene_2_1_">
	<g>
		
			<image overflow="visible" opacity="0.75" width="1027" height="1027" xlink:href="66093992F55C187.png"  transform="matrix(1 0 0 1 -1.5 -1.5)">
		</image>
		<g>
			<path fill="#FFFFFF" d="M512,5C231.994,5,5,231.993,5,512c0,280.006,226.994,507,507,507c280.005,0,507-226.994,507-507
				C1019,231.993,792.005,5,512,5z M512,1002.166c-270.708,0-490.166-219.457-490.166-490.166S241.292,21.834,512,21.834
				c270.709,0,490.166,219.457,490.166,490.166S782.709,1002.166,512,1002.166z"/>
		</g>
	</g>
</g>
</svg>
